<svg xmlns="http://www.w3.org/2000/svg" viewBox="0 0 26 26">
  <g fill="#fff" fill-rule="evenodd">
    <path d="M13 2.346c3.47 0 3.88.013 5.25.075 1.27.06 1.957.27 2.415.45.606.235 1.04.516 1.494.97.454.456.735.89.97 1.495.18.458.39 1.146.45 2.414.06 1.37.074 1.78.074 5.25 0 3.47-.013 3.88-.075 5.25-.06 1.27-.27 1.957-.45 2.415-.235.606-.516 1.04-.97 1.494-.456.454-.89.735-1.495.97-.458.18-1.146.39-2.414.45-1.37.06-1.78.074-5.25.074-3.47 0-3.88-.013-5.25-.075-1.27-.06-1.957-.27-2.415-.45-.606-.235-1.04-.516-1.494-.97-.454-.456-.735-.89-.97-1.495-.18-.458-.39-1.146-.45-2.414-.06-1.37-.074-1.78-.074-5.25 0-3.47.013-3.88.075-5.25.06-1.27.27-1.957.45-2.415.235-.606.516-1.04.97-1.494.456-.454.89-.735 1.495-.97.458-.18 1.146-.39 2.414-.45 1.37-.06 1.78-.074 5.25-.074m0-2.342c-3.53 0-3.972.015-5.358.078C6.26.145 5.314.365 4.487.686c-.854.332-1.58.777-2.302 1.5-.722.722-1.167 1.447-1.5 2.3-.32.828-.54 1.773-.603 3.156C.02 9.028.004 9.47.004 13c0 3.53.015 3.972.078 5.358.063 1.383.283 2.328.604 3.155.332.854.777 1.58 1.5 2.302.722.722 1.447 1.167 2.3 1.5.828.32 1.773.54 3.156.603 1.386.063 1.828.078 5.358.078 3.53 0 3.972-.015 5.358-.078 1.383-.063 2.328-.283 3.155-.604.854-.332 1.58-.777 2.302-1.5.722-.722 1.167-1.447 1.5-2.3.32-.828.54-1.773.603-3.156.063-1.386.078-1.83.078-5.358 0-3.53-.015-3.972-.078-5.358-.063-1.383-.283-2.328-.604-3.155-.332-.854-.777-1.58-1.5-2.302-.722-.722-1.447-1.167-2.3-1.5-.828-.32-1.773-.54-3.156-.603C16.972.02 16.528.004 13 .004"/>
    <path d="M13 6.326c-3.686 0-6.674 2.988-6.674 6.674 0 3.686 2.988 6.674 6.674 6.674 3.686 0 6.674-2.988 6.674-6.674 0-3.686-2.988-6.674-6.674-6.674zm0 11.006c-2.392 0-4.332-1.94-4.332-4.332S10.608 8.668 13 8.668s4.332 1.94 4.332 4.332-1.94 4.332-4.332 4.332zM21.497 6.063c0 .86-.698 1.56-1.56 1.56-.86 0-1.56-.7-1.56-1.56 0-.862.7-1.56 1.56-1.56.862 0 1.56.698 1.56 1.56"/>
  </g>
</svg>
