<svg xmlns="http://www.w3.org/2000/svg" viewBox="0 0 18 31">
  <g fill="#fff" fill-rule="evenodd">
    <path d="M9.01 16c-4.41 0-8-3.59-8-8s3.59-8 8-8 8 3.59 8 8-3.59 8-8 8zm0-12.2c-2.316 0-4.2 1.884-4.2 4.2 0 2.316 1.884 4.2 4.2 4.2 2.316 0 4.2-1.884 4.2-4.2 0-2.316-1.884-4.2-4.2-4.2z"/>
    <path d="M17.58 16.775c-.676-.874-1.933-1.033-2.805-.356-.02.015-2.183 1.613-5.765 1.613-3.568 0-5.782-1.612-5.79-1.618-.877-.674-2.132-.51-2.805.366-.674.876-.51 2.132.366 2.805.107.082 2.2 1.66 5.68 2.238l-5.312 5.37c-.777.786-.77 2.052.016 2.83.39.385.897.577 1.406.577.515 0 1.03-.198 1.422-.594l5.018-5.073 5.017 5.073c.39.396.907.594 1.422.594.507 0 1.016-.192 1.405-.578.786-.777.793-2.043.016-2.828l-5.31-5.37c3.477-.58 5.56-2.16 5.665-2.243.873-.676 1.032-1.932.356-2.805"/>
  </g>
</svg>
