<svg xmlns="http://www.w3.org/2000/svg" viewBox="0 0 30 24">
  <path fill="#fff" fill-rule="evenodd" d="M29.494 2.844c-1.088.48-2.25.806-3.475.956 1.25-.75 2.21-1.938 2.66-3.35-1.168.694-2.46 1.2-3.842 1.47C23.73.736 22.156 0 20.418 0c-3.343 0-6.05 2.712-6.05 6.056 0 .475.05.938.157 1.382-5.03-.25-9.494-2.663-12.475-6.332-.52.894-.82 1.938-.82 3.044 0 2.1 1.076 3.956 2.7 5.044-1-.025-1.936-.3-2.75-.757v.076c0 2.937 2.09 5.38 4.857 5.937-.506.137-1.043.212-1.593.212-.388 0-.77-.037-1.138-.112.77 2.406 3.007 4.156 5.657 4.206-2.07 1.625-4.682 2.594-7.52 2.594-.487 0-.968-.03-1.443-.087C2.67 23 5.85 24 9.262 24c11.144 0 17.232-9.23 17.232-17.238 0-.262-.007-.525-.02-.78 1.182-.857 2.207-1.92 3.02-3.138"/>
</svg>
