<svg xmlns="http://www.w3.org/2000/svg" viewBox="0 0 33 19">
  <path fill="#fff" fill-rule="evenodd" d="M16.123 18.92h1.97s.595-.064.9-.392c.28-.3.27-.865.27-.865s-.04-2.643 1.188-3.032c1.21-.383 2.763 2.555 4.41 3.685 1.243.855 2.19.668 2.19.668l4.4-.062s2.302-.14 1.21-1.95c-.09-.15-.636-1.34-3.272-3.787-2.76-2.56-2.39-2.147.934-6.577 2.024-2.698 2.834-4.345 2.58-5.05-.24-.673-1.73-.495-1.73-.495l-4.954.03s-.368-.05-.64.114c-.266.16-.437.532-.437.532s-.784 2.088-1.83 3.863c-2.206 3.746-3.088 3.944-3.45 3.71-.838-.54-.628-2.177-.628-3.34 0-3.63.55-5.144-1.073-5.536-.54-.13-.936-.216-2.314-.23-1.768-.018-3.264.006-4.11.42-.565.277-1 .892-.735.927.33.045 1.07.2 1.464.736.507.69.49 2.243.49 2.243s.29 4.273-.682 4.803c-.668.365-1.584-.38-3.55-3.778C7.71 3.815 6.95 1.89 6.95 1.89s-.146-.36-.408-.553c-.318-.233-.76-.307-.76-.307l-4.71.03s-.707.02-.966.328c-.23.273-.02.84-.02.84s3.687 8.623 7.862 12.97c3.827 3.985 8.173 3.723 8.173 3.723"/>
</svg>
