<svg xmlns="http://www.w3.org/2000/svg" viewBox="0 0 30 21">
  <path fill="#fff" fill-rule="evenodd" d="M29.7 4.552s-.293-2.067-1.192-2.978c-1.14-1.195-2.42-1.2-3.006-1.27C21.304 0 15.006 0 15.006 0h-.013S8.696 0 4.498.304c-.586.07-1.865.075-3.006 1.27C.592 2.484.3 4.552.3 4.552S0 6.98 0 9.407v2.176c0 2.428.3 4.855.3 4.855s.293 2.068 1.192 2.978c1.14 1.195 2.64 1.157 3.308 1.283 2.4.23 10.2.3 10.2.3s6.304-.01 10.502-.313c.586-.07 1.865-.076 3.006-1.27.9-.91 1.192-2.98 1.192-2.98s.3-2.426.3-4.854V9.407c0-2.427-.3-4.855-.3-4.855zm-17.797 9.89L11.9 6.01l8.108 4.23-8.105 4.2z"/>
</svg>
